<?xml version="1.0" encoding="utf-8"?>
<!-- Generator: Adobe Illustrator 21.1.0, SVG Export Plug-In . SVG Version: 6.00 Build 0)  -->
<svg version="1.1" id="圖層_1" xmlns="http://www.w3.org/2000/svg" xmlns:xlink="http://www.w3.org/1999/xlink" x="0px" y="0px"
	 viewBox="0 0 128 128" style="enable-background:new 0 0 128 128;" xml:space="preserve">
<path d="M112.3,3.2H15.7C8.8,3.2,3.2,8.8,3.2,15.7v96.6c0,6.9,5.6,12.4,12.4,12.4h96.6c6.9,0,12.4-5.6,12.4-12.4V15.7
	C124.8,8.8,119.2,3.2,112.3,3.2L112.3,3.2L112.3,3.2z M101.3,37.8l-0.3,0.1l0,0.3c-2.6,18.3-18.6,32.1-37,32.1
	c-18.5,0-34.4-13.8-37-32.1l0-0.3l-0.3-0.1c-1.8-1.1-2.9-2.9-2.9-5c0-3.2,2.6-5.8,5.8-5.8c3.2,0,5.8,2.6,5.8,5.8
	c0,1.7-0.8,3.3-2.2,4.4l-0.3,0.2l0.1,0.3c2.4,15.3,15.5,26.5,31,26.5c15.5,0,28.6-11.1,31-26.5l0.1-0.3l-0.3-0.2
	c-1.4-1.2-2.2-2.7-2.2-4.4c0-3.2,2.6-5.8,5.8-5.8l0,0l0,0l0,0c3.2,0,5.8,2.6,5.8,5.8C104.3,34.8,103.2,36.7,101.3,37.8L101.3,37.8
	L101.3,37.8z"/>
</svg>
